<svg xmlns="http://www.w3.org/2000/svg" version="1.1" xmlns:xlink="http://www.w3.org/1999/xlink" xmlns:svgjs="http://svgjs.com/svgjs" width="1000" height="1000"><rect width="1000" height="1000" rx="500" ry="500" fill="#ffffff"></rect><g transform="matrix(20.833333333333332,0,0,20.833333333333332,-1.1899421215056805,0)"><svg xmlns="http://www.w3.org/2000/svg" version="1.1" xmlns:xlink="http://www.w3.org/1999/xlink" xmlns:svgjs="http://svgjs.com/svgjs" width="48" height="48"><svg width="48" height="48" viewBox="0 0 48 48" fill="none" xmlns="http://www.w3.org/2000/svg">
<path fill-rule="evenodd" clip-rule="evenodd" d="M25 6H23V10.17C22.4827 10.353 22.0256 10.6743 21.6782 11.0991C21.3309 11.5238 21.1067 12.0357 21.03 12.579L13.74 14.534C13.5145 14.5949 13.3174 14.7329 13.183 14.924L7.328 23.218H6.12C6.11912 24.023 6.23259 24.824 6.457 25.597C7.407 28.853 10.254 31.217 13.62 31.217C17.115 31.217 20.051 28.667 20.884 25.217C21.0413 24.5633 21.1205 23.8933 21.12 23.221V23.218H20.185L15.585 16.11L21.427 14.543C21.7858 15.1416 22.342 15.5963 23 15.829V38H20V40H14V42H34V40H28V38H25V15.83C25.5777 15.6258 26.079 15.2497 26.4365 14.7522C26.7941 14.2547 26.9907 13.6596 27 13.047L32.14 11.669L28.473 17H27C27 17.69 27.082 18.36 27.236 19C28.069 22.45 31.006 25 34.5 25C37.865 25 40.713 22.636 41.663 19.379C41.699 19.2543 41.7323 19.128 41.763 19C41.9207 18.3461 42.0003 17.6757 42 17.003V17H40.054L35.36 9.49C35.2487 9.30214 35.079 9.15587 34.8767 9.07353C34.6745 8.99119 34.4509 8.9773 34.24 9.034L26.36 11.148C26.0086 10.6998 25.5369 10.361 25 10.171V6ZM30.901 17H37.696L34.46 11.823L30.901 17ZM17.803 23.218L13.964 17.285L9.776 23.218H17.803Z" fill="black"></path>
</svg></svg></g></svg>